/*************************************************
 * Common Melodies
 *************************************************/
#ifndef MELODY_H
#define MELODY_H

#include "pitches.h"

// Nokia ringtone
extern int nokia_melody[];
extern int nokia_duration[];

// Happy Birthday
int happy_birthday_melody[] = {
  NOTE_C4, NOTE_C4, 
  NOTE_D4, NOTE_C4, NOTE_F4,
  NOTE_E4, NOTE_C4, NOTE_C4, 
  NOTE_D4, NOTE_C4, NOTE_G4,
  NOTE_F4, NOTE_C4, NOTE_C4,
  
  NOTE_C5, NOTE_A4, NOTE_F4, 
  NOTE_E4, NOTE_D4, NOTE_AS4, NOTE_AS4,
  NOTE_A4, NOTE_F4, NOTE_G4,
  NOTE_F4
};

int happy_birthday_durations[] = {
  4, 8, 
  4, 4, 4,
  2, 4, 8, 
  4, 4, 4,
  2, 4, 8,
  
  4, 4, 4, 
  4, 4, 4, 8,
  4, 4, 4,
  2
};

// Christmas
int xmas_melody[] = {
  NOTE_E5, NOTE_E5, NOTE_E5,
  NOTE_E5, NOTE_E5, NOTE_E5,
  NOTE_E5, NOTE_G5, NOTE_C5, NOTE_D5,
  NOTE_E5,
  NOTE_F5, NOTE_F5, NOTE_F5, NOTE_F5,
  NOTE_F5, NOTE_E5, NOTE_E5, NOTE_E5, NOTE_E5,
  NOTE_E5, NOTE_D5, NOTE_D5, NOTE_E5,
  NOTE_D5, NOTE_G5
};

int xmas_durations[] = {
  8, 8, 4,
  8, 8, 4,
  8, 8, 8, 8,
  2,
  8, 8, 8, 8,
  8, 8, 8, 16, 16,
  8, 8, 8, 8,
  4, 4
};

// Game of Thrones
int got_melody[] = {
  NOTE_G4, NOTE_C4, NOTE_DS4, NOTE_F4, NOTE_G4, NOTE_C4, NOTE_DS4, NOTE_F4,
  NOTE_G4, NOTE_C4, NOTE_DS4, NOTE_F4, NOTE_G4, NOTE_C4, NOTE_DS4, NOTE_F4,
  NOTE_G4, NOTE_C4, NOTE_E4, NOTE_F4, NOTE_G4, NOTE_C4, NOTE_E4, NOTE_F4,
  NOTE_G4, NOTE_C4, NOTE_E4, NOTE_F4, NOTE_G4, NOTE_C4, NOTE_E4, NOTE_F4,
  NOTE_G4, NOTE_C4,
  
  NOTE_DS4, NOTE_F4, NOTE_G4, NOTE_C4, NOTE_DS4, NOTE_F4,
  NOTE_D4,
  NOTE_F4, NOTE_AS3,
  NOTE_DS4, NOTE_D4, NOTE_F4, NOTE_AS3,
  NOTE_DS4, NOTE_D4, NOTE_C4,
  
  NOTE_G4, NOTE_C4,
  
  NOTE_DS4, NOTE_F4, NOTE_G4, NOTE_C4, NOTE_DS4, NOTE_F4,
  NOTE_D4,
  NOTE_F4, NOTE_AS3,
  NOTE_DS4, NOTE_D4, NOTE_F4, NOTE_AS3,
  NOTE_DS4, NOTE_D4, NOTE_C4,
  NOTE_G4, NOTE_C4,
  NOTE_DS4, NOTE_F4, NOTE_G4,  NOTE_C4, NOTE_DS4, NOTE_F4,
  
  NOTE_D4,
  NOTE_F4, NOTE_AS3,
  NOTE_D4, NOTE_DS4, NOTE_D4, NOTE_AS3,
  NOTE_C4,
  NOTE_C5,
  NOTE_AS4,
  NOTE_C4,
  NOTE_G4,
  NOTE_DS4,
  NOTE_DS4, NOTE_F4,
  NOTE_G4,
  
  NOTE_C5,
  NOTE_AS4,
  NOTE_C4,
  NOTE_G4,
  NOTE_DS4,
  NOTE_DS4, NOTE_D4,
  NOTE_C5, NOTE_G4, NOTE_GS4, NOTE_AS4, NOTE_C5, NOTE_G4, NOTE_GS4, NOTE_AS4,
  NOTE_C5, NOTE_G4, NOTE_GS4, NOTE_AS4, NOTE_C5, NOTE_G4, NOTE_GS4, NOTE_AS4,
  
  REST, NOTE_GS5, NOTE_AS5, NOTE_C6, NOTE_G5, NOTE_GS5, NOTE_AS5,
  NOTE_C6, NOTE_G5, NOTE_GS5, NOTE_AS5, NOTE_C6, NOTE_G5, NOTE_GS5, NOTE_AS5
};

int got_durations[] = {
  8, 8, 16, 16, 8, 8, 16, 16,
  8, 8, 16, 16, 8, 8, 16, 16,
  8, 8, 16, 16, 8, 8, 16, 16,
  8, 8, 16, 16, 8, 8, 16, 16,
  4, 4,
  
  16, 16, 4, 4, 16, 16,
  1,
  4, 4,
  16, 16, 4, 4,
  16, 16, 1,
  
  4, 4,
  
  16, 16, 4, 4, 16, 16,
  1,
  4, 4,
  16, 16, 4, 4,
  16, 16, 1,
  4, 4,
  16, 16, 4, 4, 16, 16,
  
  2,
  4, 4,
  8, 8, 8, 8,
  1,
  2,
  2,
  2,
  2,
  2,
  4, 4,
  1,
  
  2,
  2,
  2,
  2,
  2,
  4, 4,
  8, 8, 16, 16, 8, 8, 16, 16,
  8, 8, 16, 16, 8, 8, 16, 16,
  
  4, 16, 16, 8, 8, 16, 16,
  8, 16, 16, 16, 8, 8, 16, 16
};

// Harry Potter
int hp_melody[] = {
  REST, NOTE_D4,
  NOTE_G4, NOTE_AS4, NOTE_A4,
  NOTE_G4, NOTE_D5,
  NOTE_C5, 
  NOTE_A4,
  NOTE_G4, NOTE_AS4, NOTE_A4,
  NOTE_F4, NOTE_GS4,
  NOTE_D4, 
  NOTE_D4,
  
  NOTE_G4, NOTE_AS4, NOTE_A4,
  NOTE_G4, NOTE_D5,
  NOTE_F5, NOTE_E5,
  NOTE_DS5, NOTE_B4,
  NOTE_DS5, NOTE_D5, NOTE_CS5,
  NOTE_CS4, NOTE_B4,
  NOTE_G4,
  NOTE_AS4,
   
  NOTE_D5, NOTE_AS4,
  NOTE_D5, NOTE_AS4,
  NOTE_DS5, NOTE_D5,
  NOTE_CS5, NOTE_A4,
  NOTE_AS4, NOTE_D5, NOTE_CS5,
  NOTE_CS4, NOTE_D4,
  NOTE_D5, 
  REST, NOTE_AS4,  
  
  NOTE_D5, NOTE_AS4,
  NOTE_D5, NOTE_AS4,
  NOTE_F5, NOTE_E5,
  NOTE_DS5, NOTE_B4,
  NOTE_DS5, NOTE_D5, NOTE_CS5,
  NOTE_CS4, NOTE_AS4,
  NOTE_G4
};

int hp_durations[] = {
  2, 4,
  4, 8, 4,
  2, 4,
  2, 
  2,
  4, 8, 4,
  2, 4,
  1, 
  4,
  
  4, 8, 4,
  2, 4,
  2, 4,
  2, 4,
  4, 8, 4,
  2, 4,
  1,
  4,
   
  2, 4,
  2, 4,
  2, 4,
  2, 4,
  4, 8, 4,
  2, 4,
  1, 
  4, 4,  
  
  2, 4,
  2, 4,
  2, 4,
  2, 4,
  4, 8, 4,
  2, 4,
  1
};

// Home Alone
int ha_melody[] = {
  NOTE_E4, NOTE_C5, NOTE_B4, NOTE_B4,
  NOTE_C5, NOTE_B4, NOTE_F4, NOTE_G4,
  NOTE_G4, NOTE_E4, NOTE_G4, NOTE_E4,
  NOTE_C5, NOTE_G4,
  NOTE_D4, NOTE_A4, NOTE_G4, NOTE_C4, NOTE_F4,
  NOTE_E4, NOTE_D4,
  NOTE_G4, NOTE_E4, NOTE_G4, NOTE_E4,
  NOTE_C5, NOTE_G4,
  NOTE_A4, NOTE_C5, NOTE_F4, NOTE_E4, NOTE_G4, NOTE_C4,
  NOTE_E4, NOTE_D4,
  REST, NOTE_E4,NOTE_C4, NOTE_F4, NOTE_D4,
  REST, NOTE_FS4, NOTE_D4, NOTE_A4, NOTE_G4,
  REST, NOTE_GS5, NOTE_E4, NOTE_B4, NOTE_A4,
  NOTE_F4, NOTE_C5, NOTE_A4, NOTE_B4,
  NOTE_G4, NOTE_E4, NOTE_G4, NOTE_E4,
  NOTE_C5, NOTE_G4,
  NOTE_D4, NOTE_A4, NOTE_G4, NOTE_C4, NOTE_F4,
  NOTE_E4, NOTE_D4,
  NOTE_G4, NOTE_E4, NOTE_G4, NOTE_E4,
  NOTE_C5, NOTE_G4,
  REST, NOTE_A4, NOTE_B4, NOTE_C5, NOTE_G4, NOTE_E4,
  REST, NOTE_A4, NOTE_B4, NOTE_C5, NOTE_G4, NOTE_E4,
  REST, NOTE_A4, NOTE_B4, NOTE_C5, NOTE_G4, NOTE_E4,
  NOTE_C4, NOTE_C5, NOTE_B4,
  NOTE_D5, NOTE_E4, NOTE_G4, NOTE_E4,
  NOTE_C5, NOTE_G4,
  NOTE_C5
};

int ha_durations[] = {
  4, 8, 8, 2,
  8, 8, 4, 4,
  4, 4, 4, 4,
  2, 2,
  4, 4, 4, 8, 8,
  2, 2,
  4, 4, 4, 4,
  2, 2,
  8, 8, 4, 8, 8, 4,
  2, 2,
  4, 8, 8, 4, 4,
  4, 8, 8, 4, 4,
  4, 8, 8, 4, 4,
  4, 8, 8, 2, 
  4, 4, 4, 4,
  2, 2,
  4, 4, 4, 8, 8,
  2, 2,
  4, 4, 4, 4,
  2, 2,
  4, 16, 16, 8, 4, 4,
  4, 16, 16, 8, 4, 4,
  4, 16, 16, 8, 4, 4,
  4, 2, 4,
  4, 4, 4, 4,
  2, 2,
  1
};

// Pink Panther
int pink_panther_melody[] = {
  REST, REST, REST, NOTE_DS4, 
  NOTE_E4, REST, NOTE_FS4, NOTE_G4, REST, NOTE_DS4,
  NOTE_E4, NOTE_FS4,  NOTE_G4, NOTE_C5, NOTE_B4, NOTE_E4, NOTE_G4, NOTE_B4,   
  NOTE_AS4, NOTE_A4, NOTE_G4, NOTE_E4, NOTE_D4, 
  NOTE_E4, REST, REST, NOTE_DS4,
  
  NOTE_E4, REST, NOTE_FS4, NOTE_G4, REST, NOTE_DS4,
  NOTE_E4, NOTE_FS4,  NOTE_G4, NOTE_C5, NOTE_B4, NOTE_G4, NOTE_B4, NOTE_E5,
  NOTE_DS5,   
  NOTE_D5, REST, REST, NOTE_DS4, 
  NOTE_E4, REST, NOTE_FS4, NOTE_G4, REST, NOTE_DS4,
  NOTE_E4, NOTE_FS4,  NOTE_G4, NOTE_C5, NOTE_B4, NOTE_E4, NOTE_G4, NOTE_B4,   
  
  NOTE_AS4, NOTE_A4, NOTE_G4, NOTE_E4, NOTE_D4, 
  NOTE_E4, REST,
  REST, NOTE_E5, NOTE_D5, NOTE_B4, NOTE_A4, NOTE_G4, NOTE_E4,
  NOTE_AS4, NOTE_A4, NOTE_AS4, NOTE_A4, NOTE_AS4, NOTE_A4, NOTE_AS4, NOTE_A4,   
  NOTE_G4, NOTE_E4, NOTE_D4, NOTE_E4, NOTE_E4, NOTE_E4
};

int pink_panther_durations[] = {
  2, 4, 8, 8, 
  4, 8, 8, 4, 8, 8,
  8, 8,  8, 8, 8, 8, 8, 8,   
  2, 16, 16, 16, 16, 
  2, 4, 8, 4,
  
  4, 8, 8, 4, 8, 8,
  8, 8,  8, 8, 8, 8, 8, 8,
  1,   
  2, 4, 8, 8, 
  4, 8, 8, 4, 8, 8,
  8, 8,  8, 8, 8, 8, 8, 8,   
  
  2, 16, 16, 16, 16, 
  4, 4,
  4, 8, 8, 8, 8, 8, 8,
  16, 8, 16, 8, 16, 8, 16, 8,   
  16, 16, 16, 16, 16, 2
};

// Pirates of the Caribbean
int poc_melody[] = {
  NOTE_E4, NOTE_G4, NOTE_A4, NOTE_A4, REST,
  NOTE_A4, NOTE_B4, NOTE_C5, NOTE_C5, REST,
  NOTE_C5, NOTE_D5, NOTE_B4, NOTE_B4, REST,
  NOTE_A4, NOTE_G4, NOTE_A4, REST,
  
  NOTE_E4, NOTE_G4, NOTE_A4, NOTE_A4, REST,
  NOTE_A4, NOTE_B4, NOTE_C5, NOTE_C5, REST,
  NOTE_C5, NOTE_D5, NOTE_B4, NOTE_B4, REST,
  NOTE_A4, NOTE_G4, NOTE_A4, REST,
  
  NOTE_E4, NOTE_G4, NOTE_A4, NOTE_A4, REST,
  NOTE_A4, NOTE_C5, NOTE_D5, NOTE_D5, REST,
  NOTE_D5, NOTE_E5, NOTE_F5, NOTE_F5, REST,
  NOTE_E5, NOTE_D5, NOTE_E5, NOTE_A4, REST,
  
  NOTE_A4, NOTE_B4, NOTE_C5, NOTE_C5, REST,
  NOTE_D5, NOTE_E5, NOTE_A4, REST,
  NOTE_A4, NOTE_C5, NOTE_B4, NOTE_B4, REST,
  NOTE_C5, NOTE_A4, NOTE_B4, REST,
  
  NOTE_A4, NOTE_A4,
  //Repeat of first part
  NOTE_A4, NOTE_B4, NOTE_C5, NOTE_C5, REST,
  NOTE_C5, NOTE_D5, NOTE_B4, NOTE_B4, REST,
  NOTE_A4, NOTE_G4, NOTE_A4, REST,
  
  NOTE_E4, NOTE_G4, NOTE_A4, NOTE_A4, REST,
  NOTE_A4, NOTE_B4, NOTE_C5, NOTE_C5, REST,
  NOTE_C5, NOTE_D5, NOTE_B4, NOTE_B4, REST,
  NOTE_A4, NOTE_G4, NOTE_A4, REST,
  
  NOTE_E4, NOTE_G4, NOTE_A4, NOTE_A4, REST,
  NOTE_A4, NOTE_C5, NOTE_D5, NOTE_D5, REST,
  NOTE_D5, NOTE_E5, NOTE_F5, NOTE_F5, REST,
  NOTE_E5, NOTE_D5, NOTE_E5, NOTE_A4, REST,
  
  NOTE_A4, NOTE_B4, NOTE_C5, NOTE_C5, REST,
  NOTE_D5, NOTE_E5, NOTE_A4, REST,
  NOTE_A4, NOTE_C5, NOTE_B4, NOTE_B4, REST,
  NOTE_C5, NOTE_A4, NOTE_B4, REST,
  //End of Repeat
  
  NOTE_E5, REST, REST, NOTE_F5, REST, REST,
  NOTE_E5, NOTE_E5, REST, NOTE_G5, REST, NOTE_E5, NOTE_D5, REST, REST,
  NOTE_D5, REST, REST, NOTE_C5, REST, REST,
  NOTE_B4, NOTE_C5, REST, NOTE_B4, REST, NOTE_A4,
  
  NOTE_E5, REST, REST, NOTE_F5, REST, REST,
  NOTE_E5, NOTE_E5, REST, NOTE_G5, REST, NOTE_E5, NOTE_D5, REST, REST,
  NOTE_D5, REST, REST, NOTE_C5, REST, REST,
  NOTE_B4, NOTE_C5, REST, NOTE_B4, REST, NOTE_A4
};

int poc_durations[] = {
  8, 8, 4, 8, 8,
  8, 8, 4, 8, 8,
  8, 8, 4, 8, 8,
  8, 8, 4, 8,
  
  8, 8, 4, 8, 8,
  8, 8, 4, 8, 8,
  8, 8, 4, 8, 8,
  8, 8, 4, 8,
  
  8, 8, 4, 8, 8,
  8, 8, 4, 8, 8,
  8, 8, 4, 8, 8,
  8, 8, 8, 4, 8,
  
  8, 8, 4, 8, 8,
  4, 8, 4, 8,
  8, 8, 4, 8, 8,
  8, 8, 4, 4,
  
  4, 8,
  //Repeat of First Part
  8, 8, 4, 8, 8,
  8, 8, 4, 8, 8,
  8, 8, 4, 8,
  
  8, 8, 4, 8, 8,
  8, 8, 4, 8, 8,
  8, 8, 4, 8, 8,
  8, 8, 4, 8,
  
  8, 8, 4, 8, 8,
  8, 8, 4, 8, 8,
  8, 8, 4, 8, 8,
  8, 8, 8, 4, 8,
  
  8, 8, 4, 8, 8,
  4, 8, 4, 8,
  8, 8, 4, 8, 8,
  8, 8, 4, 4,
  //End of Repeat
  
  4, 8, 4, 4, 8, 4,
  8, 8, 8, 8, 8, 8, 8, 8, 4,
  4, 8, 4, 4, 8, 4,
  8, 8, 8, 8, 8, 2,
  
  4, 8, 4, 4, 8, 4,
  8, 8, 8, 8, 8, 8, 8, 8, 4,
  4, 8, 4, 4, 8, 4,
  8, 8, 8, 8, 8, 2
};

// Star Wars
int star_wars_melody[] = {
  NOTE_AS4, NOTE_AS4, NOTE_AS4,
  NOTE_F5, NOTE_C6,
  NOTE_AS5, NOTE_A5, NOTE_G5, NOTE_F6, NOTE_C6,
  NOTE_AS5, NOTE_A5, NOTE_G5, NOTE_F6, NOTE_C6,
  NOTE_AS5, NOTE_A5, NOTE_AS5, NOTE_G5, NOTE_C5, NOTE_C5, NOTE_C5,
  NOTE_F5, NOTE_C6,
  NOTE_AS5, NOTE_A5, NOTE_G5, NOTE_F6, NOTE_C6,

  NOTE_AS5, NOTE_A5, NOTE_G5, NOTE_F6, NOTE_C6,
  NOTE_AS5, NOTE_A5, NOTE_AS5, NOTE_G5, NOTE_C5, NOTE_C5,
  NOTE_D5, NOTE_D5, NOTE_AS5, NOTE_A5, NOTE_G5, NOTE_F5,
  NOTE_F5, NOTE_G5, NOTE_A5, NOTE_G5, NOTE_D5, NOTE_E5, NOTE_C5, NOTE_C5,
  NOTE_D5, NOTE_D5, NOTE_AS5, NOTE_A5, NOTE_G5, NOTE_F5,

  NOTE_C6, NOTE_G5, NOTE_G5, REST, NOTE_C5,
  NOTE_D5, NOTE_D5, NOTE_AS5, NOTE_A5, NOTE_G5, NOTE_F5,
  NOTE_F5, NOTE_G5, NOTE_A5, NOTE_G5, NOTE_D5, NOTE_E5, NOTE_C6, NOTE_C6,
  NOTE_F6, NOTE_DS6, NOTE_CS6, NOTE_C6, NOTE_AS5, NOTE_GS5, NOTE_G5, NOTE_F5,
  NOTE_C6
};

int star_wars_durations[] = {
  8, 8, 8,
  2, 2,
  8, 8, 8, 2, 4,
  8, 8, 8, 2, 4,
  8, 8, 8, 2, 8, 8, 8,
  2, 2,
  8, 8, 8, 2, 4,

  8, 8, 8, 2, 4,
  8, 8, 8, 2, 8, 16,
  4, 8, 8, 8, 8, 8,
  8, 8, 8, 4, 8, 4, 8, 16,
  4, 8, 8, 8, 8, 8,

  8, 16, 2, 8, 8,
  4, 8, 8, 8, 8, 8,
  8, 8, 8, 4, 8, 4, 8, 16,
  4, 8, 4, 8, 4, 8, 4, 8,
  1
};

// Subway Surfers
int subway_surfers_melody[] = {
  NOTE_C4, REST, NOTE_G4, REST, NOTE_AS4, NOTE_C5, NOTE_AS4, REST, NOTE_F4, NOTE_DS4, REST,
  NOTE_C4, REST, NOTE_G4, REST, NOTE_AS4, NOTE_C5, NOTE_AS4, REST, NOTE_F4, NOTE_DS4, REST,
  NOTE_C4, REST, NOTE_G4, REST, NOTE_AS4, NOTE_C5, NOTE_AS4, REST, NOTE_F4, NOTE_DS4, REST,

  NOTE_C4, REST, NOTE_E4, REST, NOTE_G4, NOTE_A4, NOTE_AS4,
  NOTE_C5, REST, NOTE_C5, REST, NOTE_AS4, REST, NOTE_A4, REST,
  NOTE_AS4, REST, NOTE_AS4, NOTE_C5, REST, NOTE_AS4, NOTE_A4, REST,
  REST,
  NOTE_C5, REST, NOTE_AS4, REST, NOTE_A4, REST, NOTE_AS4, REST, NOTE_E5,
  REST,

  NOTE_C5, REST, NOTE_C5, REST, NOTE_AS4, REST, NOTE_A4, REST,
  NOTE_AS4, REST, NOTE_AS4, NOTE_C5, REST, NOTE_AS4, NOTE_A4, REST,
  REST,
  NOTE_C5, REST, NOTE_AS4, REST, NOTE_A4, REST, NOTE_AS4, REST, NOTE_E4,
  REST,
};

int subway_surfers_durations[] = {
  4, 8, 4, 8, 4, 8, 8, 16, 8, 8, 16,
  4, 8, 4, 8, 4, 8, 8, 16, 8, 8, 16,
  4, 8, 4, 8, 4, 8, 8, 16, 8, 8, 16,

  4, 8, 4, 8, 4, 4, 4,
  8, 16, 8, 16, 8, 16, 8, 16,
  8, 16, 8, 8, 16, 8, 8, 16,
  4,
  8, 16, 8, 16, 8, 16, 8, 4, 8,
  4,

  8, 16, 8, 16, 8, 16, 8, 16,
  8, 16, 8, 8, 16, 8, 8, 16,
  4,
  8, 16, 8, 16, 8, 16, 8, 4, 8,
  1
};

#endif